HIERARCHY
ROOT Hips
{
	OFFSET -0.001795 -0.223333 0.028219
	CHANNELS 6 Xposition Yposition Zposition Zrotation Yrotation Xrotation 
	JOINT LeftUpLeg
	{
		OFFSET 0.069520 -0.091406 -0.006815
		CHANNELS 3 Zrotation Yrotation Xrotation
		JOINT LeftLeg
		{
			OFFSET 0.034277 -0.375199 -0.004496
			CHANNELS 3 Zrotation Yrotation Xrotation
			JOINT LeftFoot
			{
				OFFSET -0.013596 -0.397961 -0.043693
				CHANNELS 3 Zrotation Yrotation Xrotation
				JOINT LeftToe
				{
					OFFSET 0.026358 -0.055791 0.119288
					CHANNELS 3 Zrotation Yrotation Xrotation
					End Site
					{
						OFFSET 0.000000 0.000000 0.000000
					}
				}
			}
		}
	}
	JOINT RightUpLeg
	{
		OFFSET -0.067670 -0.090522 -0.004320
		CHANNELS 3 Zrotation Yrotation Xrotation
		JOINT RightLeg
		{
			OFFSET -0.038290 -0.382569 -0.008850
			CHANNELS 3 Zrotation Yrotation Xrotation
			JOINT RightFoot
			{
				OFFSET 0.015774 -0.398415 -0.042312
				CHANNELS 3 Zrotation Yrotation Xrotation
				JOINT RightToe
				{
					OFFSET -0.025372 -0.048144 0.123348
					CHANNELS 3 Zrotation Yrotation Xrotation
					End Site
					{
						OFFSET 0.000000 0.000000 0.000000
					}
				}
			}
		}
	}
	JOINT Spine
	{
		OFFSET -0.002533 0.108963 -0.026696
		CHANNELS 3 Zrotation Yrotation Xrotation
		JOINT Spine1
		{
			OFFSET 0.005487 0.135180 0.001092
			CHANNELS 3 Zrotation Yrotation Xrotation
			JOINT Spine2
			{
				OFFSET 0.001457 0.052922 0.025425
				CHANNELS 3 Zrotation Yrotation Xrotation
				JOINT Neck
				{
					OFFSET -0.002778 0.213870 -0.042857
					CHANNELS 3 Zrotation Yrotation Xrotation
					JOINT Head
					{
						OFFSET 0.005152 0.064970 0.051349
						CHANNELS 3 Zrotation Yrotation Xrotation
						End Site
						{
							OFFSET 0.000000 0.000000 0.000000
						}
					}
				}
				JOINT LeftShoulder
				{
					OFFSET 0.078845 0.121749 -0.034090
					CHANNELS 3 Zrotation Yrotation Xrotation
					JOINT LeftArm
					{
						OFFSET 0.090977 0.030469 -0.008868
						CHANNELS 3 Zrotation Yrotation Xrotation
						JOINT LeftForeArm
						{
							OFFSET 0.259612 -0.012772 -0.027456
							CHANNELS 3 Zrotation Yrotation Xrotation
							JOINT LeftHand
							{
								OFFSET 0.249234 0.008986 -0.001171
								CHANNELS 3 Zrotation Yrotation Xrotation
								End Site
								{
									OFFSET 0.000000 0.000000 0.000000
								}
							}
						}
					}
				}
				JOINT RightShoulder
				{
					OFFSET -0.081759 0.118833 -0.038615
					CHANNELS 3 Zrotation Yrotation Xrotation
					JOINT RightArm
					{
						OFFSET -0.096012 0.032551 -0.009143
						CHANNELS 3 Zrotation Yrotation Xrotation
						JOINT RightForeArm
						{
							OFFSET -0.253742 -0.013329 -0.021401
							CHANNELS 3 Zrotation Yrotation Xrotation
							JOINT RightHand
							{
								OFFSET -0.255298 0.007772 -0.005559
								CHANNELS 3 Zrotation Yrotation Xrotation
								End Site
								{
									OFFSET 0.000000 0.000000 0.000000
								}
							}
						}
					}
				}
			}
		}
	}
}
MOTION
Frames: 15
Frame Time: 0.050000
0.000000 0.970928 0.000000 -0.426242 -2.207182 1.060746 1.242614 -0.041155 -0.335824 0.003879 0.047792 -1.435708 -2.112028 0.533023 11.143974 0.000000 0.000000 0.000000 0.752407 0.120825 -1.362170 -1.372859 0.207929 1.294074 1.918518 -1.011828 10.626222 0.000000 0.000000 0.000000 4.004846 -0.099852 0.710699 -2.275064 1.077539 -3.526095 -2.139963 3.519868 7.876215 6.219653 -1.962657 -19.253220 0.000000 0.000000 0.000000 -19.145263 -7.187008 1.411724 -53.214184 -7.631834 -3.174948 -12.502544 -24.488983 3.541686 0.000000 0.000000 0.000000 19.220913 0.703112 -0.631380 58.753653 5.786430 -3.287305 10.383061 22.918162 2.850018 0.000000 0.000000 0.000000 
-0.000071 0.970680 -0.000346 -0.717763 -2.706237 1.531370 1.753594 -0.061019 -0.533680 0.024972 0.050083 -1.570697 -1.696184 0.687081 9.822513 0.000000 0.000000 0.000000 0.772079 0.175577 -1.904315 -1.089426 0.195046 1.692877 1.892991 -0.574651 9.437420 0.000000 0.000000 0.000000 4.157489 -0.053292 -0.005473 -2.466287 1.159802 -2.820138 -2.054172 4.094505 7.437853 7.026010 -2.195579 -20.512780 0.000000 0.000000 0.000000 -19.079160 -7.621613 1.545575 -53.717575 -7.820303 -3.052875 -11.847966 -24.105081 3.322688 0.000000 0.000000 0.000000 18.568958 0.121411 -0.851092 59.894141 5.707042 -3.296778 10.711314 23.089658 2.952104 0.000000 0.000000 0.000000 
-0.000171 0.970840 -0.000967 -0.557633 -3.167791 1.509658 1.553008 -0.101561 -1.076035 0.190219 -0.016361 -0.157108 -1.395213 1.009292 9.408100 0.000000 0.000000 0.000000 1.221630 0.180627 -2.024746 -1.720394 0.277575 1.876952 1.605692 -1.260093 9.513770 0.000000 0.000000 0.000000 4.203134 -0.051854 -0.020883 -2.031800 0.957454 -4.004828 -2.664438 4.766027 8.422332 6.717169 -2.106001 -19.708046 0.000000 0.000000 0.000000 -18.613975 -7.567247 1.454918 -53.460496 -7.636967 -3.209749 -12.790705 -23.321049 3.392525 0.000000 0.000000 0.000000 19.321218 1.211343 -0.130314 59.156777 5.488514 -3.526525 10.000900 24.254225 3.014233 0.000000 0.000000 0.000000 
-0.000378 0.972104 -0.001710 -0.653302 -2.924391 1.858499 1.949253 -0.143718 -1.602814 -0.091898 0.017669 -0.218118 -1.630387 0.614271 9.395672 0.000000 0.000000 0.000000 1.429906 0.251747 -2.690154 -1.478890 0.274454 2.329418 1.311087 -1.751913 9.342953 0.000000 0.000000 0.000000 3.890658 -0.036873 -0.235296 -1.906792 0.905562 -3.251751 -2.239316 4.366169 7.586496 6.835994 -2.206819 -19.585768 0.000000 0.000000 0.000000 -19.255136 -7.525780 1.441186 -53.927206 -7.767854 -3.087438 -11.470815 -22.645038 3.034168 0.000000 0.000000 0.000000 18.778840 1.624615 0.009916 59.126775 5.418355 -3.441544 10.547100 24.406783 3.117540 0.000000 0.000000 0.000000 
-0.000596 0.972818 -0.002487 -0.745613 -2.978030 1.728072 1.767484 -0.176764 -2.037690 0.282188 -0.055195 0.652848 -1.240796 1.232231 9.221256 0.000000 0.000000 0.000000 1.652157 0.255456 -2.735285 -1.406590 0.288282 2.741066 1.173338 -2.034275 9.329771 0.000000 0.000000 0.000000 3.884676 -0.057063 0.057768 -1.816437 0.865324 -3.006919 -2.371144 4.581757 7.282074 6.618038 -2.130800 -19.018705 0.000000 0.000000 0.000000 -19.833156 -7.763479 1.457951 -53.760277 -7.731482 -3.039480 -11.131931 -22.311469 2.908843 0.000000 0.000000 0.000000 18.977766 1.787328 0.140105 59.131678 5.431343 -3.415965 10.709933 24.952010 3.239886 0.000000 0.000000 0.000000 
-0.000755 0.973395 -0.002822 -0.833622 -3.061747 1.745511 1.776101 -0.196803 -2.302809 0.103405 -0.048358 1.096114 -0.808892 1.746239 8.539606 0.000000 0.000000 0.000000 1.820696 0.273199 -2.903659 -1.031877 0.260119 3.099065 1.155345 -1.885208 8.896900 0.000000 0.000000 0.000000 3.872047 -0.056805 0.053267 -1.763429 0.840971 -2.733914 -2.229178 4.555746 7.180205 6.539788 -2.118105 -18.842765 0.000000 0.000000 0.000000 -20.863859 -7.913739 1.496173 -53.425297 -7.694750 -3.005496 -10.024804 -21.949622 2.652303 0.000000 0.000000 0.000000 18.982187 2.334348 0.413546 59.331291 5.735349 -3.257154 9.817923 24.782320 3.019441 0.000000 0.000000 0.000000 
-0.000791 0.973191 -0.002870 -0.799702 -3.120180 1.788423 1.639508 -0.237902 -2.816921 0.232113 -0.087384 1.774322 -0.573565 2.050753 8.225290 0.000000 0.000000 0.000000 1.925925 0.302563 -3.165294 -0.951664 0.272236 3.533469 0.940080 -2.037129 8.231146 0.000000 0.000000 0.000000 3.827178 -0.068581 0.211425 -2.013107 0.952819 -2.683524 -2.178283 4.514342 7.437039 6.643382 -2.188105 -18.892540 0.000000 0.000000 0.000000 -20.812568 -7.713548 1.426139 -53.848007 -8.066789 -2.898411 -9.329906 -22.203511 2.557133 0.000000 0.000000 0.000000 18.739006 2.160109 0.310007 59.723623 5.529673 -3.390253 9.797664 25.157401 3.070826 0.000000 0.000000 0.000000 
-0.000672 0.972519 -0.002606 -0.861483 -2.739028 2.349506 1.773389 -0.325212 -3.955434 0.128527 -0.097916 2.498385 -0.553230 1.891624 7.582591 0.000000 0.000000 0.000000 1.937919 0.412773 -4.114101 -0.786944 0.295852 4.444023 0.505816 -2.393387 7.073848 0.000000 0.000000 0.000000 3.786607 -0.081861 0.292694 -2.082558 0.984637 -2.961570 -1.997854 4.506805 7.838477 6.312160 -2.055105 -18.398761 0.000000 0.000000 0.000000 -21.105688 -7.718578 1.382101 -53.902556 -8.217273 -2.851192 -9.255998 -22.584339 2.586802 0.000000 0.000000 0.000000 18.719158 1.899455 0.221173 59.751836 5.230462 -3.577063 10.282739 25.867862 3.295713 0.000000 0.000000 0.000000 
-0.000498 0.971833 -0.002283 -0.846731 -2.555765 2.808171 1.815234 -0.405950 -5.019264 0.085993 -0.117320 3.272705 -0.530092 1.742313 7.016783 0.000000 0.000000 0.000000 1.826921 0.521414 -5.058611 -0.685960 0.330119 5.429316 0.099222 -2.961486 6.414825 0.000000 0.000000 0.000000 3.668135 -0.093365 0.394545 -2.126708 1.004690 -2.956435 -1.891601 4.381756 8.120742 5.990340 -1.844546 -18.611900 0.000000 0.000000 0.000000 -20.884711 -7.707571 1.420165 -54.296373 -8.911221 -2.591516 -8.742545 -22.806777 2.518988 0.000000 0.000000 0.000000 18.262391 2.023983 0.300702 59.989069 4.717346 -3.857233 10.307981 26.599674 3.414637 0.000000 0.000000 0.000000 
-0.000422 0.971453 -0.001971 -1.027665 -2.384514 3.467500 2.151826 -0.495215 -6.367834 -0.240497 -0.105602 4.456797 -0.338051 1.942908 6.563161 0.000000 0.000000 0.000000 2.116768 0.664015 -6.243568 -0.823778 0.408084 6.564759 -0.141506 -3.103131 5.560744 0.000000 0.000000 0.000000 3.759930 -0.113666 0.523508 -2.325660 1.091603 -3.221800 -1.822099 4.288407 8.412344 5.565294 -1.652068 -18.213639 0.000000 0.000000 0.000000 -20.602598 -8.059809 1.650515 -54.750228 -9.144571 -2.528957 -7.875292 -22.996463 2.371891 0.000000 0.000000 0.000000 18.189516 2.059558 0.330090 60.103124 4.556524 -3.961413 10.371621 27.318052 3.545904 0.000000 0.000000 0.000000 
-0.000169 0.971247 -0.001667 -1.180238 -2.155680 4.278310 2.352014 -0.628870 -8.364985 -0.359464 -0.143454 6.458022 -0.094409 2.035601 5.530079 0.000000 0.000000 0.000000 2.262918 0.877924 -8.002926 -0.770742 0.480427 8.169023 -0.442320 -3.332313 4.573139 0.000000 0.000000 0.000000 3.854430 -0.139628 0.690272 -2.520376 1.175460 -3.460620 -1.670664 4.318428 8.792513 5.898807 -1.765450 -18.767888 0.000000 0.000000 0.000000 -19.912554 -8.512398 1.922084 -54.760791 -9.577128 -2.364951 -7.678059 -23.575395 2.392748 0.000000 0.000000 0.000000 17.979373 2.093306 0.399080 59.853933 4.510834 -3.999545 11.076770 28.006863 3.836943 0.000000 0.000000 0.000000 
0.000255 0.969561 -0.000982 -1.030279 -2.393370 4.663788 2.031460 -0.808692 -10.684814 -0.416446 -0.231060 10.405623 0.644802 2.949292 4.160372 0.000000 0.000000 0.000000 2.387365 1.209283 -10.655384 -1.110405 0.749495 11.858562 -0.607221 -3.158658 3.286670 0.000000 0.000000 0.000000 3.576950 -0.250567 2.271000 -2.626415 1.216314 -3.799412 -1.492070 4.055793 9.119776 5.547094 -1.558262 -19.171848 0.000000 0.000000 0.000000 -18.729036 -8.567804 2.151177 -54.517323 -9.665505 -2.388139 -8.067509 -24.885936 2.641632 0.000000 0.000000 0.000000 17.205634 2.561653 0.577960 59.255633 4.860702 -3.806518 11.707587 29.894878 4.281329 0.000000 0.000000 0.000000 
0.001131 0.966507 0.000225 -0.914637 -2.235008 5.011236 1.774697 -1.003467 -13.114810 -0.806053 -0.232207 14.261888 1.310576 3.718845 2.561855 0.000000 0.000000 0.000000 2.072229 1.546662 -13.555519 -0.980465 1.012038 16.930980 -1.119708 -3.644346 1.660259 0.000000 0.000000 0.000000 3.322562 -0.370803 4.103831 -2.447817 1.137200 -4.218779 -1.718555 3.754908 9.525298 5.156961 -1.253153 -19.977926 0.000000 0.000000 0.000000 -17.001500 -8.946585 2.486834 -54.313120 -10.177920 -2.219791 -8.272531 -25.700276 2.790829 0.000000 0.000000 0.000000 16.197191 3.402186 1.013424 59.113508 5.292620 -3.593436 12.124753 31.782144 4.706136 0.000000 0.000000 0.000000 
0.002327 0.958409 0.001174 -0.750179 -2.391995 5.575080 1.630276 -1.282987 -16.888261 -1.525757 -0.120286 20.337136 2.132805 4.599544 0.160568 0.000000 0.000000 0.000000 1.884645 2.048847 -17.738994 -0.899434 1.400190 23.506508 -1.912723 -4.438433 -1.021728 0.000000 0.000000 0.000000 2.944908 -0.526320 6.770030 -2.662353 1.225458 -4.234299 -1.207664 3.335676 9.136499 4.349495 -0.680272 -21.465409 0.000000 0.000000 0.000000 -16.413608 -9.305320 2.828901 -53.596605 -10.193843 -2.168881 -8.696714 -26.708814 3.032614 0.000000 0.000000 0.000000 15.128433 4.036678 1.223638 58.751353 5.890026 -3.209874 12.958571 34.198052 5.314306 0.000000 0.000000 0.000000 
0.003948 0.941514 0.000852 -0.748754 -2.405971 5.985606 2.198139 -1.505812 -21.511695 -2.952681 0.348603 27.937289 3.068293 5.277335 -3.963395 0.000000 0.000000 0.000000 1.426057 2.660781 -23.139315 -0.482050 1.791717 31.907241 -2.904855 -5.704711 -4.254495 0.000000 0.000000 0.000000 2.785179 -0.752658 10.572606 -1.879900 0.890871 -5.007407 -1.640988 3.439204 9.186713 4.615461 -0.650062 -22.794541 0.000000 0.000000 0.000000 -14.599193 -9.808114 3.089723 -53.823802 -11.370808 -1.662397 -8.188115 -26.903691 2.925430 0.000000 0.000000 0.000000 13.547823 5.049626 1.791203 58.848755 7.308870 -2.465872 11.305003 36.071636 5.148613 0.000000 0.000000 0.000000 
